<svg id="visual" viewBox="0 0 900 600" width="900" height="600" xmlns="http://www.w3.org/2000/svg" xmlns:xlink="http://www.w3.org/1999/xlink" version="1.1"><path d="M0 329L13.7 326.8C27.3 324.7 54.7 320.3 82 323.7C109.3 327 136.7 338 163.8 343.8C191 349.7 218 350.3 245.2 351.8C272.3 353.3 299.7 355.7 327 349.3C354.3 343 381.7 328 409 322.2C436.3 316.3 463.7 319.7 491 328.8C518.3 338 545.7 353 573 353.7C600.3 354.3 627.7 340.7 654.8 348.7C682 356.7 709 386.3 736.2 392.3C763.3 398.3 790.7 380.7 818 366.3C845.3 352 872.7 341 886.3 335.5L900 330L900 601L886.3 601C872.7 601 845.3 601 818 601C790.7 601 763.3 601 736.2 601C709 601 682 601 654.8 601C627.7 601 600.3 601 573 601C545.7 601 518.3 601 491 601C463.7 601 436.3 601 409 601C381.7 601 354.3 601 327 601C299.7 601 272.3 601 245.2 601C218 601 191 601 163.8 601C136.7 601 109.3 601 82 601C54.7 601 27.3 601 13.7 601L0 601Z" fill="#023e8a"></path><path d="M0 394L13.7 396.3C27.3 398.7 54.7 403.3 82 406.3C109.3 409.3 136.7 410.7 163.8 416.3C191 422 218 432 245.2 432C272.3 432 299.7 422 327 424.5C354.3 427 381.7 442 409 446C436.3 450 463.7 443 491 435.2C518.3 427.3 545.7 418.7 573 416.5C600.3 414.3 627.7 418.7 654.8 425.7C682 432.7 709 442.3 736.2 440.8C763.3 439.3 790.7 426.7 818 420.3C845.3 414 872.7 414 886.3 414L900 414L900 601L886.3 601C872.7 601 845.3 601 818 601C790.7 601 763.3 601 736.2 601C709 601 682 601 654.8 601C627.7 601 600.3 601 573 601C545.7 601 518.3 601 491 601C463.7 601 436.3 601 409 601C381.7 601 354.3 601 327 601C299.7 601 272.3 601 245.2 601C218 601 191 601 163.8 601C136.7 601 109.3 601 82 601C54.7 601 27.3 601 13.7 601L0 601Z" fill="#002375"></path><path d="M0 484L13.7 489.7C27.3 495.3 54.7 506.7 82 509.5C109.3 512.3 136.7 506.7 163.8 504C191 501.3 218 501.7 245.2 497.3C272.3 493 299.7 484 327 480.7C354.3 477.3 381.7 479.7 409 481.3C436.3 483 463.7 484 491 483.7C518.3 483.3 545.7 481.7 573 485.3C600.3 489 627.7 498 654.8 497.3C682 496.7 709 486.3 736.2 487C763.3 487.7 790.7 499.3 818 506C845.3 512.7 872.7 514.3 886.3 515.2L900 516L900 601L886.3 601C872.7 601 845.3 601 818 601C790.7 601 763.3 601 736.2 601C709 601 682 601 654.8 601C627.7 601 600.3 601 573 601C545.7 601 518.3 601 491 601C463.7 601 436.3 601 409 601C381.7 601 354.3 601 327 601C299.7 601 272.3 601 245.2 601C218 601 191 601 163.8 601C136.7 601 109.3 601 82 601C54.7 601 27.3 601 13.7 601L0 601Z" fill="#03045e"></path></svg>