<?xml version="1.0" standalone="no"?><svg xmlns="http://www.w3.org/2000/svg" viewBox="0 0 1440 320"><path fill="#03045e" fill-opacity="1" d="M0,64L16,85.3C32,107,64,149,96,170.7C128,192,160,192,192,181.3C224,171,256,149,288,128C320,107,352,85,384,64C416,43,448,21,480,26.7C512,32,544,64,576,74.7C608,85,640,75,672,85.3C704,96,736,128,768,128C800,128,832,96,864,90.7C896,85,928,107,960,117.3C992,128,1024,128,1056,149.3C1088,171,1120,213,1152,197.3C1184,181,1216,107,1248,90.7C1280,75,1312,117,1344,128C1376,139,1408,117,1424,106.7L1440,96L1440,320L1424,320C1408,320,1376,320,1344,320C1312,320,1280,320,1248,320C1216,320,1184,320,1152,320C1120,320,1088,320,1056,320C1024,320,992,320,960,320C928,320,896,320,864,320C832,320,800,320,768,320C736,320,704,320,672,320C640,320,608,320,576,320C544,320,512,320,480,320C448,320,416,320,384,320C352,320,320,320,288,320C256,320,224,320,192,320C160,320,128,320,96,320C64,320,32,320,16,320L0,320Z"></path></svg>